#Comment line ignore any data following # character 
#Hierarchical Translation and Rotation (.htr) file 
[Header]	
#Header keywords are followed by a single value 
FileType HTR		#Single word string
DataType HTRS		#Translation followed by rotation and scale data
FileVersion 1		#integer
NumSegments 84		#integer
NumFrames 2		#integer
DataFrameRate 30		#integer, data frame rate in this file
EulerRotationOrder ZYX
CalibrationUnits mm
RotationUnits Degrees
GlobalAxisofGravity Y
BoneLengthAxis Y
ScaleFactor 1.00
[SegmentNames&Hierarchy]
#CHILD	PARENT
MASTER GLOBAL
root MASTER
chest root
L_mid_tent01 root
R_mid_tent01 root
spine01 root
Bip01_Neck chest
L_humerus chest
R_humerus chest
weapon_bone chest
Bip01_Head Bip01_Neck
eye_left_bone Bip01_Head
eye_right_bone Bip01_Head
L_forearm L_humerus
L_front_hand L_forearm
L_weapon_bone L_forearm
L_front_hand01_01 L_front_hand
L_front_hand02_01 L_front_hand
L_front_hand03_01 L_front_hand
L_front_hand01_02 L_front_hand01_01
L_front_hand02_02 L_front_hand02_01
L_front_hand03_02 L_front_hand03_01
R_forearm R_humerus
R_front_hand R_forearm
R_weapon_bone R_forearm
R_front_hand01_01 R_front_hand
R_front_hand02_01 R_front_hand
R_front_hand03_01 R_front_hand
R_front_hand01_02 R_front_hand01_01
R_front_hand02_02 R_front_hand02_01
R_front_hand03_02 R_front_hand03_01
null_rope01_connect L_mid_tent01
Rope1_Seg01 null_rope01_connect
Rope1_Seg02 Rope1_Seg01
Rope1_Seg03 Rope1_Seg02
Rope1_Seg04 Rope1_Seg03
Rope1_Seg05 Rope1_Seg04
Rope1_Seg06 Rope1_Seg05
Rope1_Seg07 Rope1_Seg06
Rope1_Seg09 Rope1_Seg07
L_mid_hand01 Rope1_Seg09
L_mid_hand02 Rope1_Seg09
L_mid_hand03 Rope1_Seg09
null_rope02_connect R_mid_tent01
Rope2_Seg01 null_rope02_connect
Rope2_Seg02 Rope2_Seg01
Rope2_Seg03 Rope2_Seg02
Rope2_Seg04 Rope2_Seg03
Rope2_Seg05 Rope2_Seg04
Rope2_Seg06 Rope2_Seg05
Rope2_Seg07 Rope2_Seg06
Rope2_Seg09 Rope2_Seg07
R_mid_hand01 Rope2_Seg09
R_mid_hand02 Rope2_Seg09
R_mid_hand03 Rope2_Seg09
spine02 spine01
spine03 spine02
pelvis spine03
null_rope03_connect pelvis
null_rope04_connect pelvis
Rope3_Seg01 null_rope03_connect
Rope3_Seg02 Rope3_Seg01
Rope3_Seg03 Rope3_Seg02
Rope3_Seg04 Rope3_Seg03
Rope3_Seg05 Rope3_Seg04
Rope3_Seg06 Rope3_Seg05
Rope3_Seg07 Rope3_Seg06
Rope3_Seg08 Rope3_Seg07
Rope3_Seg09 Rope3_Seg08
R_rear_hand01 Rope3_Seg09
R_rear_hand02 Rope3_Seg09
R_rear_hand03 Rope3_Seg09
Rope4_Seg01 null_rope04_connect
Rope4_Seg02 Rope4_Seg01
Rope4_Seg03 Rope4_Seg02
Rope4_Seg04 Rope4_Seg03
Rope4_Seg05 Rope4_Seg04
Rope4_Seg06 Rope4_Seg05
Rope4_Seg07 Rope4_Seg06
Rope4_Seg08 Rope4_Seg07
Rope4_Seg09 Rope4_Seg08
L_rear_hand01 Rope4_Seg09
L_rear_hand02 Rope4_Seg09
L_rear_hand03 Rope4_Seg09
[BasePosition]
#SegmentName Tx, Ty, Tz, Rx, Ry, Rz, BoneLength
MASTER 0.000000 0.000000 0.000000 -90.000000 0.000000 0.000000 10.000000 
root 0.000000 0.000000 0.000000 0.000000 0.000000 0.000000 10.000000 
chest 0.000000 0.000000 0.000000 0.000000 0.000000 0.000000 10.000000 
L_mid_tent01 0.000000 0.000000 0.000000 0.000000 0.000000 0.000000 10.000000 
R_mid_tent01 0.000000 0.000000 0.000000 0.000000 0.000000 0.000000 10.000000 
spine01 0.000000 0.000000 0.000000 0.000000 0.000000 0.000000 10.000000 
Bip01_Neck 0.000000 0.000000 0.000000 0.000000 0.000000 0.000000 10.000000 
L_humerus 0.000000 0.000000 0.000000 0.000000 0.000000 0.000000 10.000000 
R_humerus 0.000000 0.000000 0.000000 0.000000 0.000000 0.000000 10.000000 
weapon_bone 0.000000 0.000000 0.000000 0.000000 0.000000 0.000000 10.000000 
Bip01_Head 0.000000 0.000000 0.000000 0.000000 0.000000 0.000000 10.000000 
eye_left_bone 0.000000 0.000000 0.000000 0.000000 0.000000 0.000000 10.000000 
eye_right_bone 0.000000 0.000000 0.000000 0.000000 0.000000 0.000000 10.000000 
L_forearm 0.000000 0.000000 0.000000 0.000000 0.000000 0.000000 10.000000 
L_front_hand 0.000000 0.000000 0.000000 0.000000 0.000000 0.000000 10.000000 
L_weapon_bone 0.000000 0.000000 0.000000 0.000000 0.000000 0.000000 10.000000 
L_front_hand01_01 0.000000 0.000000 0.000000 0.000000 0.000000 0.000000 10.000000 
L_front_hand02_01 0.000000 0.000000 0.000000 0.000000 0.000000 0.000000 10.000000 
L_front_hand03_01 0.000000 0.000000 0.000000 0.000000 0.000000 0.000000 10.000000 
L_front_hand01_02 0.000000 0.000000 0.000000 0.000000 0.000000 0.000000 10.000000 
L_front_hand02_02 0.000000 0.000000 0.000000 0.000000 0.000000 0.000000 10.000000 
L_front_hand03_02 0.000000 0.000000 0.000000 0.000000 0.000000 0.000000 10.000000 
R_forearm 0.000000 0.000000 0.000000 0.000000 0.000000 0.000000 10.000000 
R_front_hand 0.000000 0.000000 0.000000 0.000000 0.000000 0.000000 10.000000 
R_weapon_bone 0.000000 0.000000 0.000000 0.000000 0.000000 0.000000 10.000000 
R_front_hand01_01 0.000000 0.000000 0.000000 0.000000 0.000000 0.000000 10.000000 
R_front_hand02_01 0.000000 0.000000 0.000000 0.000000 0.000000 0.000000 10.000000 
R_front_hand03_01 0.000000 0.000000 0.000000 0.000000 0.000000 0.000000 10.000000 
R_front_hand01_02 0.000000 0.000000 0.000000 0.000000 0.000000 0.000000 10.000000 
R_front_hand02_02 0.000000 0.000000 0.000000 0.000000 0.000000 0.000000 10.000000 
R_front_hand03_02 0.000000 0.000000 0.000000 0.000000 0.000000 0.000000 10.000000 
null_rope01_connect 0.000000 0.000000 0.000000 0.000000 0.000000 0.000000 10.000000 
Rope1_Seg01 0.000000 0.000000 0.000000 0.000000 0.000000 0.000000 10.000000 
Rope1_Seg02 0.000000 0.000000 0.000000 0.000000 0.000000 0.000000 10.000000 
Rope1_Seg03 0.000000 0.000000 0.000000 0.000000 0.000000 0.000000 10.000000 
Rope1_Seg04 0.000000 0.000000 0.000000 0.000000 0.000000 0.000000 10.000000 
Rope1_Seg05 0.000000 0.000000 0.000000 0.000000 0.000000 0.000000 10.000000 
Rope1_Seg06 0.000000 0.000000 0.000000 0.000000 0.000000 0.000000 10.000000 
Rope1_Seg07 0.000000 0.000000 0.000000 0.000000 0.000000 0.000000 10.000000 
Rope1_Seg09 0.000000 0.000000 0.000000 0.000000 0.000000 0.000000 10.000000 
L_mid_hand01 0.000000 0.000000 0.000000 0.000000 0.000000 0.000000 10.000000 
L_mid_hand02 0.000000 0.000000 0.000000 0.000000 0.000000 0.000000 10.000000 
L_mid_hand03 0.000000 0.000000 0.000000 0.000000 0.000000 0.000000 10.000000 
null_rope02_connect 0.000000 0.000000 0.000000 0.000000 0.000000 0.000000 10.000000 
Rope2_Seg01 0.000000 0.000000 0.000000 0.000000 0.000000 0.000000 10.000000 
Rope2_Seg02 0.000000 0.000000 0.000000 0.000000 0.000000 0.000000 10.000000 
Rope2_Seg03 0.000000 0.000000 0.000000 0.000000 0.000000 0.000000 10.000000 
Rope2_Seg04 0.000000 0.000000 0.000000 0.000000 0.000000 0.000000 10.000000 
Rope2_Seg05 0.000000 0.000000 0.000000 0.000000 0.000000 0.000000 10.000000 
Rope2_Seg06 0.000000 0.000000 0.000000 0.000000 0.000000 0.000000 10.000000 
Rope2_Seg07 0.000000 0.000000 0.000000 0.000000 0.000000 0.000000 10.000000 
Rope2_Seg09 0.000000 0.000000 0.000000 0.000000 0.000000 0.000000 10.000000 
R_mid_hand01 0.000000 0.000000 0.000000 0.000000 0.000000 0.000000 10.000000 
R_mid_hand02 0.000000 0.000000 0.000000 0.000000 0.000000 0.000000 10.000000 
R_mid_hand03 0.000000 0.000000 0.000000 0.000000 0.000000 0.000000 10.000000 
spine02 0.000000 0.000000 0.000000 0.000000 0.000000 0.000000 10.000000 
spine03 0.000000 0.000000 0.000000 0.000000 0.000000 0.000000 10.000000 
pelvis 0.000000 0.000000 0.000000 0.000000 0.000000 0.000000 10.000000 
null_rope03_connect 0.000000 0.000000 0.000000 0.000000 0.000000 0.000000 10.000000 
null_rope04_connect 0.000000 0.000000 0.000000 0.000000 0.000000 0.000000 10.000000 
Rope3_Seg01 0.000000 0.000000 0.000000 0.000000 0.000000 0.000000 10.000000 
Rope3_Seg02 0.000000 0.000000 0.000000 0.000000 0.000000 0.000000 10.000000 
Rope3_Seg03 0.000000 0.000000 0.000000 0.000000 0.000000 0.000000 10.000000 
Rope3_Seg04 0.000000 0.000000 0.000000 0.000000 0.000000 0.000000 10.000000 
Rope3_Seg05 0.000000 0.000000 0.000000 0.000000 0.000000 0.000000 10.000000 
Rope3_Seg06 0.000000 0.000000 0.000000 0.000000 0.000000 0.000000 10.000000 
Rope3_Seg07 0.000000 0.000000 0.000000 0.000000 0.000000 0.000000 10.000000 
Rope3_Seg08 0.000000 0.000000 0.000000 0.000000 0.000000 0.000000 10.000000 
Rope3_Seg09 0.000000 0.000000 0.000000 0.000000 0.000000 0.000000 10.000000 
R_rear_hand01 0.000000 0.000000 0.000000 0.000000 0.000000 0.000000 10.000000 
R_rear_hand02 0.000000 0.000000 0.000000 0.000000 0.000000 0.000000 10.000000 
R_rear_hand03 0.000000 0.000000 0.000000 0.000000 0.000000 0.000000 10.000000 
Rope4_Seg01 0.000000 0.000000 0.000000 0.000000 0.000000 0.000000 10.000000 
Rope4_Seg02 0.000000 0.000000 0.000000 0.000000 0.000000 0.000000 10.000000 
Rope4_Seg03 0.000000 0.000000 0.000000 0.000000 0.000000 0.000000 10.000000 
Rope4_Seg04 0.000000 0.000000 0.000000 0.000000 0.000000 0.000000 10.000000 
Rope4_Seg05 0.000000 0.000000 0.000000 0.000000 0.000000 0.000000 10.000000 
Rope4_Seg06 0.000000 0.000000 0.000000 0.000000 0.000000 0.000000 10.000000 
Rope4_Seg07 0.000000 0.000000 0.000000 0.000000 0.000000 0.000000 10.000000 
Rope4_Seg08 0.000000 0.000000 0.000000 0.000000 0.000000 0.000000 10.000000 
Rope4_Seg09 0.000000 0.000000 0.000000 0.000000 0.000000 0.000000 10.000000 
L_rear_hand01 0.000000 0.000000 0.000000 0.000000 0.000000 0.000000 10.000000 
L_rear_hand02 0.000000 0.000000 0.000000 0.000000 0.000000 0.000000 10.000000 
L_rear_hand03 0.000000 0.000000 0.000000 0.000000 0.000000 0.000000 10.000000 
#Beginning of Data. Separated by tabs
#Fr	Tx	Ty	Tz	Rx	Ry	Rz	SF
[MASTER]
49 -1436.813232 12464.885742 566.036804 0.001660 0.001660 0.001660 12560.183594
50 -1218.496460 12824.694336 451.941650 0.001660 0.001660 0.001660 12890.375000
[root]
49 -12.855122 -76.678314 1199.277466 -108.913887 -18.935894 -107.560066 1201.795044
50 -14.488712 -71.816277 1304.820435 -106.161102 -18.353127 -109.669136 1306.875610
[chest]
49 -84.512650 -34.090519 0.000000 -12.968658 0.479258 177.310486 91.129311
50 -84.512650 -34.090519 0.000000 -5.482462 0.594266 177.033356 91.129311
[L_mid_tent01]
49 27.298738 22.179258 -249.918701 -5.756656 -1.666617 -8.763271 252.381653
50 27.298731 22.179258 -249.918701 -7.473539 -4.366322 -2.346781 252.381653
[R_mid_tent01]
49 23.228794 24.509907 226.238495 172.479752 -13.625929 48.455212 228.744751
50 23.228794 24.509907 226.238495 174.398193 -3.215081 33.173206 228.744751
[spine01]
49 -0.361383 -0.195265 0.000000 0.001745 0.001570 6.028303 0.410763
50 -0.361383 -0.195265 0.000000 0.001753 0.001560 6.662324 0.410763
[Bip01_Neck]
49 165.484543 71.581718 0.000119 176.643677 -1.657967 43.431911 180.302734
50 165.484543 71.581718 0.000119 176.643677 -1.657967 43.431911 180.302734
[L_humerus]
49 -13.983130 -135.272980 -120.471481 112.753632 45.654919 -162.779312 181.680161
50 -13.983130 -135.272980 -120.471481 101.444771 46.790619 -174.505920 181.680161
[R_humerus]
49 -13.983309 -135.273102 125.287651 -174.460297 -57.403767 -90.210617 184.909012
50 -13.983309 -135.273102 125.287651 -172.966339 -64.879898 -91.914589 184.909012
[weapon_bone]
49 235.964890 -300.705902 0.000000 0.000000 -89.951546 -128.212341 382.234833
50 235.964890 -300.705902 0.000000 0.000000 -89.951546 -128.212341 382.234833
[Bip01_Head]
49 213.435349 185.743591 11.417619 -3.210258 6.148875 -43.830204 283.170776
50 213.436722 185.739029 11.476557 3.975622 6.152567 -43.832966 283.171204
[eye_left_bone]
49 -24.626970 125.451866 -64.772606 0.000000 -90.000000 -99.840431 143.318359
50 -24.626970 125.451866 -64.772606 0.000000 -90.000000 -99.840431 143.318359
[eye_right_bone]
49 -24.626970 125.451866 64.327362 0.000000 -89.965736 80.156380 143.117676
50 -24.626970 125.451866 64.327362 0.000000 -89.965736 80.156380 143.117676
[L_forearm]
49 322.776093 0.000000 -0.000119 0.000413 -0.002311 -110.278091 322.776093
50 322.776093 0.000000 -0.000119 0.000412 -0.002311 -110.221527 322.776093
[L_front_hand]
49 241.149185 -0.042021 -3.300071 -178.667953 -1.835447 -27.422342 241.171753
50 241.149185 -0.042021 -3.300071 -178.667953 -1.835447 -27.422342 241.171753
[L_weapon_bone]
49 156.183838 0.000000 0.000000 0.000014 0.000007 0.000001 156.183838
50 156.183838 0.000000 0.000000 0.000014 0.000007 0.000001 156.183838
[L_front_hand01_01]
49 86.095154 20.947098 -0.655860 -0.366594 -0.477154 75.385574 88.609184
50 86.095154 20.947098 -0.655860 -0.366594 -0.477154 75.385574 88.609184
[L_front_hand02_01]
49 86.935165 -11.437475 24.513514 154.399796 -59.883835 -61.369587 91.046425
50 86.935165 -11.437475 24.513514 154.399796 -59.883835 -61.369587 91.046425
[L_front_hand03_01]
49 86.637497 -14.123976 -20.424902 -153.913849 58.118122 -62.702866 90.126129
50 86.637497 -14.123976 -20.424902 -153.913849 58.118122 -62.702866 90.126129
[L_front_hand01_02]
49 71.020905 -0.000179 0.000030 0.000334 -0.002323 -106.379684 71.020905
50 71.020905 -0.000179 0.000030 0.000334 -0.002323 -106.379684 71.020905
[L_front_hand02_02]
49 71.020927 -0.000119 0.000060 0.000334 -0.002323 -106.379684 71.020927
50 71.020927 -0.000119 0.000060 0.000334 -0.002323 -106.379684 71.020927
[L_front_hand03_02]
49 71.020905 -0.000060 0.000060 0.000334 -0.002323 -106.379684 71.020905
50 71.020905 -0.000060 0.000060 0.000334 -0.002323 -106.379684 71.020905
[R_forearm]
49 322.776428 -0.000060 0.000030 0.201601 0.066699 -108.937790 322.776428
50 322.776428 -0.000060 0.000030 0.201635 0.066597 -108.879532 322.776428
[R_front_hand]
49 238.847015 -0.006795 2.210259 -2.635298 -10.645461 -26.312506 238.857239
50 238.847015 -0.006795 2.210259 -2.635298 -10.645461 -26.312506 238.857239
[R_weapon_bone]
49 155.664093 0.002503 -0.000030 0.003487 0.001180 -90.988930 155.664078
50 155.664093 0.002503 -0.000030 0.003487 0.001180 -90.988930 155.664078
[R_front_hand01_01]
49 87.624611 14.231146 22.918642 -154.633499 -59.950619 61.746044 91.683487
50 87.624611 14.231146 22.918642 -154.633499 -59.950619 61.746044 91.683487
[R_front_hand02_01]
49 89.356956 14.367283 -19.491137 154.602661 58.302849 63.744389 92.579636
50 89.356956 14.367283 -19.491137 154.602661 58.302849 63.744389 92.579636
[R_front_hand03_01]
49 87.286232 -22.307278 -0.143439 0.162155 -0.423168 -75.767921 90.091743
50 87.286232 -22.307278 -0.143439 0.162155 -0.423168 -75.767921 90.091743
[R_front_hand01_02]
49 71.020905 0.000060 0.000119 0.002323 -0.000334 106.381714 71.020905
50 71.020905 0.000060 0.000119 0.002323 -0.000334 106.381714 71.020905
[R_front_hand02_02]
49 71.020844 -0.000030 -0.000119 0.002323 -0.000334 106.381714 71.020836
50 71.020844 -0.000030 -0.000119 0.002323 -0.000334 106.381714 71.020836
[R_front_hand03_02]
49 71.020905 0.000000 0.000030 0.002323 -0.000334 106.381714 71.020905
50 71.020905 0.000000 0.000030 0.002323 -0.000334 106.381714 71.020905
[null_rope01_connect]
49 328.732483 0.000000 -0.000238 -135.738693 -55.861370 -110.365250 328.732483
50 328.732483 0.000000 -0.000238 -138.020859 -57.029240 -115.797691 328.732483
[Rope1_Seg01]
49 0.000038 -0.000849 0.000000 106.586708 -6.827713 -85.002083 0.000850
50 0.000038 -0.000866 0.000000 96.904037 -1.979163 -91.239769 0.000867
[Rope1_Seg02]
49 139.999863 -0.000179 0.000000 10.885429 -15.761907 23.060709 139.999863
50 139.999863 -0.000179 0.000000 -15.015965 -13.329647 4.919940 139.999863
[Rope1_Seg03]
49 139.999924 0.000060 -0.000060 140.108429 -7.853389 23.041561 139.999924
50 139.999924 0.000060 -0.000060 -62.562702 -21.938087 3.468846 139.999924
[Rope1_Seg04]
49 139.999924 -0.000060 -0.000119 141.930237 -10.180246 15.894120 139.999924
50 139.999924 -0.000060 -0.000119 -5.186591 0.099032 -2.552770 139.999924
[Rope1_Seg05]
49 139.999832 0.000119 -0.000060 21.088280 10.470617 -3.424957 139.999832
50 139.999832 0.000119 -0.000060 47.956814 10.691512 13.130026 139.999832
[Rope1_Seg06]
49 139.999954 0.000119 -0.000060 1.078446 3.261596 -3.040568 139.999954
50 139.999954 0.000119 -0.000060 8.821565 5.552673 0.152392 139.999954
[Rope1_Seg07]
49 139.999985 0.000060 0.000000 0.466747 2.023004 -1.963806 139.999985
50 139.999985 0.000060 0.000000 3.696720 3.049023 -0.424531 139.999985
[Rope1_Seg09]
49 121.602913 0.000119 -0.000089 -89.793175 -1.359789 0.847147 121.602913
50 121.602913 0.000119 -0.000089 -89.793175 -1.359789 0.847147 121.602913
[L_mid_hand01]
49 103.859421 1.038730 8.195221 130.544373 -67.584534 -38.866943 104.187431
50 103.859421 1.038730 8.195221 130.544373 -67.584534 -38.866943 104.187431
[L_mid_hand02]
49 105.572853 -4.139662 -10.864139 -168.923172 43.409309 -73.498886 106.211075
50 105.572853 -4.139662 -10.864139 -168.923172 43.409309 -73.498886 106.211075
[L_mid_hand03]
49 104.641464 17.579376 -3.913581 -6.012627 17.808174 74.893669 106.179977
50 104.641464 17.579376 -3.913581 -6.012627 17.808174 74.893669 106.179977
[null_rope02_connect]
49 328.732849 0.000179 -0.000119 22.943771 71.068962 146.687057 328.732849
50 328.732849 0.000179 -0.000119 43.519943 61.979267 152.494659 328.732849
[Rope2_Seg01]
49 0.000069 -0.000801 0.000000 -49.762539 -15.080150 -122.102173 0.000804
50 0.000069 -0.000820 0.000000 -48.417820 -9.676655 -122.870033 0.000823
[Rope2_Seg02]
49 139.999741 -0.000060 -0.000119 -0.216507 2.768044 -2.066642 139.999756
50 139.999741 -0.000060 -0.000119 -0.280700 1.994634 -2.293602 139.999756
[Rope2_Seg03]
49 140.000107 0.000030 0.000000 -0.246565 3.825376 -2.837388 140.000107
50 140.000107 0.000030 0.000000 -0.301934 2.759366 -3.152413 140.000107
[Rope2_Seg04]
49 139.999802 0.000000 -0.000060 -0.331329 7.308915 -4.589953 139.999802
50 139.999802 0.000000 -0.000060 -0.312555 4.974829 -4.949010 139.999802
[Rope2_Seg05]
49 139.999985 -0.000060 0.000119 -0.682543 13.677465 -8.770821 139.999985
50 139.999985 -0.000060 0.000119 -0.431359 11.858710 -10.534507 139.999985
[Rope2_Seg06]
49 139.999893 -0.000030 -0.000119 1.349642 -6.958539 -2.037847 139.999893
50 139.999893 -0.000030 -0.000119 1.642558 -4.720429 -4.235199 139.999893
[Rope2_Seg07]
49 139.999893 0.000060 -0.000060 0.321791 -6.015742 0.222480 139.999893
50 139.999893 0.000060 -0.000060 0.345030 -6.858648 0.471428 139.999893
[Rope2_Seg09]
49 121.338966 0.000089 -0.000060 33.793236 -1.359788 -0.847141 121.338966
50 121.338966 0.000089 -0.000060 33.793236 -1.359788 -0.847141 121.338966
[R_mid_hand01]
49 104.680779 11.144459 -10.335981 -16.212063 45.237247 70.462852 105.778534
50 104.680779 11.144459 -10.335981 -16.212063 45.237247 70.462852 105.778534
[R_mid_hand02]
49 104.070427 2.443552 8.231699 49.067368 -67.749771 39.286453 104.424065
50 104.070427 2.443552 8.231699 49.067368 -67.749771 39.286453 104.424065
[R_mid_hand03]
49 106.028137 -11.221827 -5.996406 -177.101105 15.551026 -76.585571 106.788818
50 106.028137 -11.221827 -5.996406 -177.101105 15.551026 -76.585571 106.788818
[spine02]
49 129.756927 0.001550 0.000119 0.445980 -4.035488 -14.166553 129.756927
50 129.756927 0.001550 0.000119 0.440107 -4.036171 -14.081160 129.756927
[spine03]
49 78.613533 0.081739 -4.898992 1.948867 3.805666 17.254391 78.766075
50 78.613518 0.081741 -4.898991 1.944985 3.807330 17.202421 78.766060
[pelvis]
49 169.435242 0.051022 0.000000 -49.373661 -0.677909 -11.782120 169.435257
50 169.435242 0.051022 0.000000 -46.793537 -0.780971 -12.084397 169.435257
[null_rope03_connect]
49 -1.257226 -2.466202 137.391083 -153.625320 -15.847220 -105.485664 137.418976
50 -1.257226 -2.466202 137.391083 -152.137589 -20.214407 -108.235008 137.418976
[null_rope04_connect]
49 -1.259640 -2.480268 -137.844437 -153.625320 -15.847220 -105.485664 137.872513
50 -1.259640 -2.480268 -137.844437 -152.137589 -20.214407 -108.235008 137.872513
[Rope3_Seg01]
49 0.000000 0.000000 0.000000 10.565984 10.440608 -105.300636 0.000000
50 0.000000 0.000000 0.000000 12.025031 4.964419 -108.322701 0.000000
[Rope3_Seg02]
49 139.999924 -0.000119 0.000060 0.797258 -4.906590 -5.836670 139.999924
50 139.999924 -0.000119 0.000060 3.310112 -7.613436 -2.474857 139.999924
[Rope3_Seg03]
49 139.999924 -0.000119 0.000119 0.863026 -3.061255 -2.599189 139.999924
50 139.999924 -0.000119 0.000119 3.918816 -5.854922 1.282961 139.999924
[Rope3_Seg04]
49 139.999924 0.000119 0.000000 1.011754 -5.694864 -7.327896 139.999924
50 139.999924 0.000119 0.000000 2.922466 -6.033298 -3.144888 139.999924
[Rope3_Seg05]
49 139.999924 -0.000238 0.000060 0.868428 -7.178783 -11.006314 139.999924
50 139.999924 -0.000238 0.000060 0.094374 -5.430312 -9.058143 139.999924
[Rope3_Seg06]
49 139.999893 -0.000119 -0.000060 0.694429 -3.330260 -4.918388 139.999893
50 139.999893 -0.000119 -0.000060 0.381088 -2.790258 -4.396824 139.999893
[Rope3_Seg07]
49 139.999771 0.000060 -0.000119 0.732103 -2.057661 -2.925323 139.999771
50 139.999771 0.000060 -0.000119 0.752237 -1.787993 -2.443871 139.999771
[Rope3_Seg08]
49 139.999985 -0.000060 0.000000 0.688829 -1.263961 -1.756911 139.999985
50 139.999985 -0.000060 0.000000 0.703725 -1.116944 -1.489040 139.999985
[Rope3_Seg09]
49 90.185997 -0.000179 -0.000060 89.793228 -1.359877 -0.847183 90.185997
50 90.185997 -0.000179 -0.000060 89.793228 -1.359877 -0.847183 90.185997
[R_rear_hand01]
49 103.366196 -6.073594 -10.757982 -177.714203 24.565960 -73.910950 104.101845
50 103.366196 -6.073594 -10.757982 -177.714203 24.565960 -73.910950 104.101845
[R_rear_hand02]
49 100.509819 12.039542 -7.992327 -12.874829 36.868488 72.167213 101.543350
50 100.509819 12.039542 -7.992327 -12.874829 36.868488 72.167213 101.543350
[R_rear_hand03]
49 101.539970 5.215704 5.435467 71.484581 -71.816628 21.513813 101.819031
50 101.539970 5.215704 5.435467 71.484581 -71.816628 21.513813 101.819031
[Rope4_Seg01]
49 -0.000004 -0.000849 -0.000153 -100.593254 -12.374100 -93.485504 0.000863
50 -0.000004 -0.000866 -0.000153 -98.653961 -0.672699 -98.156548 0.000879
[Rope4_Seg02]
49 139.999985 0.000060 0.000119 -0.386598 9.718119 0.395589 139.999985
50 139.999985 0.000060 0.000119 -0.196600 7.586572 -2.167726 139.999985
[Rope4_Seg03]
49 139.999924 0.000000 -0.000238 0.196473 11.616369 -1.017425 139.999924
50 139.999924 0.000000 -0.000238 0.427405 9.199547 -3.715872 139.999924
[Rope4_Seg04]
49 139.999985 0.000000 0.000119 1.195732 12.310851 1.016000 139.999985
50 139.999985 0.000000 0.000119 1.394195 10.303006 -2.957163 139.999985
[Rope4_Seg05]
49 139.999802 -0.000060 -0.000119 -1.701967 1.851583 6.150797 139.999802
50 139.999802 -0.000060 -0.000119 -1.146921 0.377547 4.420805 139.999802
[Rope4_Seg06]
49 139.999924 0.000000 0.000060 -0.701279 0.698701 2.351762 139.999924
50 139.999924 0.000000 0.000060 -0.388792 0.021921 1.599153 139.999924
[Rope4_Seg07]
49 139.999802 0.000000 0.000000 -0.222953 0.750824 1.197086 139.999802
50 139.999802 0.000000 0.000000 -0.016098 0.357847 0.649519 139.999802
[Rope4_Seg08]
49 139.999924 0.000000 0.000119 -1.677222 0.442411 0.712383 139.999924
50 139.999924 0.000000 0.000119 -1.545699 0.209642 0.384641 139.999924
[Rope4_Seg09]
49 90.185791 0.000060 0.000060 -135.617828 2.228885 0.850567 90.185791
50 90.185791 0.000060 0.000060 -135.617828 2.228885 0.850567 90.185791
[L_rear_hand01]
49 101.696655 -8.392275 -7.654577 -12.874829 -36.868488 107.832764 102.329041
50 101.696655 -8.392275 -7.654577 -12.874829 -36.868488 107.832764 102.329041
[L_rear_hand02]
49 102.726799 -1.568258 5.773216 71.484581 71.816628 158.486160 102.900848
50 102.726799 -1.568258 5.773216 71.484581 71.816628 158.486160 102.900848
[L_rear_hand03]
49 104.552910 9.721220 -10.420293 -177.714203 -24.565960 -106.089035 105.519653
50 104.552910 9.721220 -10.420293 -177.714203 -24.565960 -106.089035 105.519653
